HIERARCHY
ROOT Hips
{
	OFFSET 0.000000 83.214638 0.000000
	CHANNELS 6 Xposition Yposition Zposition Xrotation Yrotation Zrotation
	JOINT Pelvis
	{
		OFFSET 0.000000 0.000000 0.000000
		CHANNELS 3 Xrotation Yrotation Zrotation
		JOINT LeftUpLeg
		{
			OFFSET 8.479700 -4.795502 -0.379100
			CHANNELS 3 Xrotation Yrotation Zrotation
			JOINT LeftLeg
			{
				OFFSET 0.024144 -32.555107 0.112900
				CHANNELS 3 Xrotation Yrotation Zrotation
				JOINT LeftFoot
				{
					OFFSET -0.024144 -32.638630 -3.012600
					CHANNELS 3 Xrotation Yrotation Zrotation
					JOINT LeftToeBase
					{
						OFFSET 0.970200 -13.225400 11.864200
						CHANNELS 3 Xrotation Yrotation Zrotation
						End Site
						{
							OFFSET 0.000000 12.319262 0.000000
						}
					}
					JOINT LFootTongue
					{
						OFFSET 1.142400 -1.059800 6.665200
						CHANNELS 3 Xrotation Yrotation Zrotation
						End Site
						{
							OFFSET 0.000000 12.319262 0.000000
						}
					}
				}
				JOINT LeftPantLeg
				{
					OFFSET 0.918482 -16.533964 -2.284700
					CHANNELS 3 Xrotation Yrotation Zrotation
					End Site
					{
						OFFSET 0.350399 24.744368 0.000000
					}
				}
			}
		}
		JOINT RightUpLeg
		{
			OFFSET -8.479700 -4.795502 -0.379100
			CHANNELS 3 Xrotation Yrotation Zrotation
			JOINT RightLeg
			{
				OFFSET -0.023144 -32.555092 0.112900
				CHANNELS 3 Xrotation Yrotation Zrotation
				JOINT RightFoot
				{
					OFFSET 0.023144 -32.638641 -3.012700
					CHANNELS 3 Xrotation Yrotation Zrotation
					JOINT RightToeBase
					{
						OFFSET -0.970200 -13.225400 11.864200
						CHANNELS 3 Xrotation Yrotation Zrotation
						End Site
						{
							OFFSET 0.000000 12.319244 0.000000
						}
					}
					JOINT RFootTongue
					{
						OFFSET -1.142200 -1.059800 6.665200
						CHANNELS 3 Xrotation Yrotation Zrotation
						End Site
						{
							OFFSET 0.000000 12.319243 0.000000
						}
					}
				}
				JOINT RightPantLeg
				{
					OFFSET -0.919482 -16.533978 -2.284800
					CHANNELS 3 Xrotation Yrotation Zrotation
					End Site
					{
						OFFSET -0.350400 24.744419 0.000000
					}
				}
			}
		}
	}
	JOINT Spine
	{
		OFFSET 0.000000 7.722000 1.166200
		CHANNELS 3 Xrotation Yrotation Zrotation
		JOINT Spine1
		{
			OFFSET 0.000000 12.024101 0.248800
			CHANNELS 3 Xrotation Yrotation Zrotation
			JOINT Spine2
			{
				OFFSET 0.000000 11.502998 -0.491200
				CHANNELS 3 Xrotation Yrotation Zrotation
				JOINT Neck
				{
					OFFSET 0.000000 18.430702 -3.123100
					CHANNELS 3 Xrotation Yrotation Zrotation
					JOINT Head
					{
						OFFSET 0.000000 9.051102 1.034000
						CHANNELS 3 Xrotation Yrotation Zrotation
						JOINT HairB
						{
							OFFSET 0.208400 24.786102 24.822300
							CHANNELS 3 Xrotation Yrotation Zrotation
							End Site
							{
								OFFSET 0.000000 32.263779 0.000000
							}
						}
						JOINT HairA
						{
							OFFSET -7.081100 24.428299 23.196600
							CHANNELS 3 Xrotation Yrotation Zrotation
							End Site
							{
								OFFSET 0.000000 32.263779 0.000000
							}
						}
						JOINT Hat
						{
							OFFSET 16.728800 15.048294 -15.439601
							CHANNELS 3 Xrotation Yrotation Zrotation
							End Site
							{
								OFFSET 0.000000 32.263779 0.000000
							}
						}
					}
				}
				JOINT LeftShoulder
				{
					OFFSET 6.197800 13.665199 -4.064700
					CHANNELS 3 Xrotation Yrotation Zrotation
					JOINT LeftArm
					{
						OFFSET 7.778100 -0.187103 -1.709300
						CHANNELS 3 Xrotation Yrotation Zrotation
						JOINT LeftForeArm
						{
							OFFSET 22.049376 0.000000 0.000000
							CHANNELS 3 Xrotation Yrotation Zrotation
							JOINT LeftHand
							{
								OFFSET 23.009392 0.000000 0.000000
								CHANNELS 3 Xrotation Yrotation Zrotation
								JOINT LeftHandThumb1
								{
									OFFSET 3.507191 -2.063065 3.133727
									CHANNELS 3 Xrotation Yrotation Zrotation
									JOINT LeftHandThumb2
									{
										OFFSET 3.101337 -1.790558 1.790558
										CHANNELS 3 Xrotation Yrotation Zrotation
										JOINT LeftHandThumb3
										{
											OFFSET 3.058640 -1.765907 1.765906
											CHANNELS 3 Xrotation Yrotation Zrotation
											End Site
											{
												OFFSET -0.415260 3.926476 -0.049563
											}
										}
									}
								}
								JOINT LeftHandIndex1
								{
									OFFSET 11.334419 -0.901459 3.706815
									CHANNELS 3 Xrotation Yrotation Zrotation
									JOINT LeftHandIndex2
									{
										OFFSET 3.283112 0.000000 0.000000
										CHANNELS 3 Xrotation Yrotation Zrotation
										JOINT LeftHandIndex3
										{
											OFFSET 3.323853 0.000000 0.000000
											CHANNELS 3 Xrotation Yrotation Zrotation
											End Site
											{
												OFFSET -1.135597 3.097809 0.402452
											}
										}
									}
								}
								JOINT LeftHandMiddle1
								{
									OFFSET 11.335861 0.000000 0.000000
									CHANNELS 3 Xrotation Yrotation Zrotation
									JOINT LeftHandMiddle2
									{
										OFFSET 3.410492 0.000000 0.000000
										CHANNELS 3 Xrotation Yrotation Zrotation
										JOINT LeftHandMiddle3
										{
											OFFSET 3.312172 0.000000 0.000000
											CHANNELS 3 Xrotation Yrotation Zrotation
											End Site
											{
												OFFSET -1.150200 3.080154 0.400270
											}
										}
									}
								}
								JOINT LeftHandRing1
								{
									OFFSET 11.514786 -0.013176 -3.003090
									CHANNELS 3 Xrotation Yrotation Zrotation
									JOINT LeftHandRing2
									{
										OFFSET 3.053307 0.000000 0.000000
										CHANNELS 3 Xrotation Yrotation Zrotation
										JOINT LeftHandRing3
										{
											OFFSET 3.295807 0.000000 0.000000
											CHANNELS 3 Xrotation Yrotation Zrotation
											End Site
											{
												OFFSET -1.281006 3.013344 0.375733
											}
										}
									}
								}
								JOINT LeftHandPinky1
								{
									OFFSET 10.518692 -0.960396 -5.730441
									CHANNELS 3 Xrotation Yrotation Zrotation
									JOINT LeftHandPinky2
									{
										OFFSET 2.861649 0.000000 0.000000
										CHANNELS 3 Xrotation Yrotation Zrotation
										JOINT LeftHandPinky3
										{
											OFFSET 2.863380 0.000000 0.000000
											CHANNELS 3 Xrotation Yrotation Zrotation
											End Site
											{
												OFFSET -0.843597 2.711159 0.369971
											}
										}
									}
								}
							}
							JOINT LSleeve
							{
								OFFSET 6.676277 -0.344902 -1.011730
								CHANNELS 3 Xrotation Yrotation Zrotation
								End Site
								{
									OFFSET 0.000000 14.885353 0.000000
								}
							}
						}
					}
				}
				JOINT RightShoulder
				{
					OFFSET -6.197800 13.665199 -4.064700
					CHANNELS 3 Xrotation Yrotation Zrotation
					JOINT RightArm
					{
						OFFSET -7.778100 -0.187103 -1.709300
						CHANNELS 3 Xrotation Yrotation Zrotation
						JOINT RightForeArm
						{
							OFFSET -22.049376 0.000000 0.000000
							CHANNELS 3 Xrotation Yrotation Zrotation
							JOINT RightHand
							{
								OFFSET -23.009392 0.000000 0.000000
								CHANNELS 3 Xrotation Yrotation Zrotation
								JOINT RightHandThumb1
								{
									OFFSET -3.507191 -2.063065 3.133727
									CHANNELS 3 Xrotation Yrotation Zrotation
									JOINT RightHandThumb2
									{
										OFFSET -3.101337 -1.790558 1.790558
										CHANNELS 3 Xrotation Yrotation Zrotation
										JOINT RightHandThumb3
										{
											OFFSET -3.058640 -1.765907 1.765906
											CHANNELS 3 Xrotation Yrotation Zrotation
											End Site
											{
												OFFSET 0.415260 3.926476 -0.049563
											}
										}
									}
								}
								JOINT RightHandIndex1
								{
									OFFSET -11.334419 -0.901459 3.706815
									CHANNELS 3 Xrotation Yrotation Zrotation
									JOINT RightHandIndex2
									{
										OFFSET -3.283112 0.000000 0.000000
										CHANNELS 3 Xrotation Yrotation Zrotation
										JOINT RightHandIndex3
										{
											OFFSET -3.323853 0.000000 0.000000
											CHANNELS 3 Xrotation Yrotation Zrotation
											End Site
											{
												OFFSET 1.135597 3.097809 0.402452
											}
										}
									}
								}
								JOINT RightHandMiddle1
								{
									OFFSET -11.335861 0.000000 0.000000
									CHANNELS 3 Xrotation Yrotation Zrotation
									JOINT RightHandMiddle2
									{
										OFFSET -3.410492 0.000000 0.000000
										CHANNELS 3 Xrotation Yrotation Zrotation
										JOINT RightHandMiddle3
										{
											OFFSET -3.312172 0.000000 0.000000
											CHANNELS 3 Xrotation Yrotation Zrotation
											End Site
											{
												OFFSET 1.150200 3.080154 0.400270
											}
										}
									}
								}
								JOINT RightHandRing1
								{
									OFFSET -11.514786 -0.013176 -3.003090
									CHANNELS 3 Xrotation Yrotation Zrotation
									JOINT RightHandRing2
									{
										OFFSET -3.053307 0.000000 0.000000
										CHANNELS 3 Xrotation Yrotation Zrotation
										JOINT RightHandRing3
										{
											OFFSET -3.295807 0.000000 0.000000
											CHANNELS 3 Xrotation Yrotation Zrotation
											End Site
											{
												OFFSET 1.281006 3.013344 0.375733
											}
										}
									}
								}
								JOINT RightHandPinky1
								{
									OFFSET -10.518692 -0.960396 -5.730441
									CHANNELS 3 Xrotation Yrotation Zrotation
									JOINT RightHandPinky2
									{
										OFFSET -2.861649 0.000000 0.000000
										CHANNELS 3 Xrotation Yrotation Zrotation
										JOINT RightHandPinky3
										{
											OFFSET -2.863380 0.000000 0.000000
											CHANNELS 3 Xrotation Yrotation Zrotation
											End Site
											{
												OFFSET 0.843597 2.711159 0.369971
											}
										}
									}
								}
							}
							JOINT RSleeve
							{
								OFFSET -6.676277 -0.344902 -1.011730
								CHANNELS 3 Xrotation Yrotation Zrotation
								End Site
								{
									OFFSET 0.000000 14.885353 0.000000
								}
							}
						}
					}
				}
				JOINT Backpack
				{
					OFFSET 0.000000 -2.471497 36.677502
					CHANNELS 3 Xrotation Yrotation Zrotation
					End Site
					{
						OFFSET 0.000000 20.427315 0.000000
					}
				}
				JOINT Hood
				{
					OFFSET 0.000000 18.754097 -10.431000
					CHANNELS 3 Xrotation Yrotation Zrotation
					JOINT Hood1
					{
						OFFSET 0.000000 -5.011002 -7.685901
						CHANNELS 3 Xrotation Yrotation Zrotation
						End Site
						{
							OFFSET 0.000000 9.175140 0.000000
						}
					}
				}
				JOINT LHoodieString
				{
					OFFSET 5.250500 16.397697 3.089900
					CHANNELS 3 Xrotation Yrotation Zrotation
					JOINT LHoodieString1
					{
						OFFSET 0.257700 -6.364304 3.694600
						CHANNELS 3 Xrotation Yrotation Zrotation
						JOINT LHoodieString2
						{
							OFFSET 0.000000 -9.643799 2.679100
							CHANNELS 3 Xrotation Yrotation Zrotation
							End Site
							{
								OFFSET 0.000000 10.009018 0.000000
							}
						}
					}
				}
				JOINT RHoodieString
				{
					OFFSET -5.250500 16.397697 3.089900
					CHANNELS 3 Xrotation Yrotation Zrotation
					JOINT RHoodieString1
					{
						OFFSET -0.257700 -6.364304 3.694600
						CHANNELS 3 Xrotation Yrotation Zrotation
						JOINT RHoodieString2
						{
							OFFSET 0.000000 -9.643799 2.679100
							CHANNELS 3 Xrotation Yrotation Zrotation
							End Site
							{
								OFFSET 0.000000 10.009018 0.000000
							}
						}
					}
				}
			}
			JOINT LBackpack_Strap
			{
				OFFSET 15.223200 -7.719803 -6.610900
				CHANNELS 3 Xrotation Yrotation Zrotation
				End Site
				{
					OFFSET 0.000000 16.040596 0.000000
				}
			}
			JOINT RBackpack_Strap
			{
				OFFSET -15.223000 -7.719803 -6.610900
				CHANNELS 3 Xrotation Yrotation Zrotation
				End Site
				{
					OFFSET 0.000000 16.040596 0.000000
				}
			}
		}
	}
	JOINT BoyFacialAnim_Joint
	{
		OFFSET 1.000000 -82.208099 -1.550900
		CHANNELS 3 Xrotation Yrotation Zrotation
		End Site
		{
			OFFSET 0.000000 30.012791 0.000000
		}
	}
}
MOTION
Frames: 5
Frame Time: 0.016667
0.244490 78.841858 -0.889431 5.048746 -15.639260 0.144586 0.000000 0.000001 -0.000000 -34.316701 3.004647 9.418387 29.817526 4.835221 1.496636 0.257300 0.349487 -5.843233 -0.000000 0.000000 -0.000000 -0.000000 0.000000 -0.000000 0.000000 -0.000000 0.000000 -16.519991 -10.529572 -12.303168 30.690874 -6.651129 1.483212 -16.412272 -2.089468 10.836313 0.000000 0.000001 0.000000 0.000000 0.000001 0.000000 -0.000000 0.000003 -0.000001 23.090850 4.373099 -0.286343 3.699122 1.240177 -0.846331 3.692593 1.312477 -0.857370 -12.698248 1.123395 2.281903 -14.088303 7.829662 -3.298854 0.000000 -0.000000 -0.000000 0.000000 -0.000000 -0.000000 0.000000 -0.000000 -0.000000 7.811593 -20.950967 9.744737 -33.643015 -3.124194 -85.445619 0.000020 -42.998322 -4.823170 -17.287069 -10.866547 -12.598997 -7.471944 1.860686 -7.166925 30.987014 27.310513 -4.510896 -0.000002 -0.000001 0.000002 -4.713131 11.342554 -75.220955 -0.816408 3.074009 -46.874629 -0.000003 0.000002 -0.000005 1.616634 16.582658 -84.688827 0.018015 0.022053 -72.884853 -0.000000 -0.000001 -0.000002 -6.443139 23.132673 -76.210178 0.013339 0.983451 -51.003601 0.000000 -0.000001 -0.000004 -17.098964 22.128963 -43.123205 0.019741 0.027043 -78.662906 -0.000000 0.000001 -0.000002 0.000001 -0.000001 0.000001 13.917693 27.239896 -23.496414 -43.128550 -5.411287 84.812228 0.000046 58.104590 5.767207 -18.206873 16.096516 8.636270 9.347163 2.810553 -11.364518 16.169086 -43.266004 15.843575 0.000001 0.000001 0.000000 17.076781 -0.396542 31.924342 -0.204408 -0.284227 112.811564 0.000000 -0.000002 0.000003 9.205479 -5.035910 102.738094 0.014979 -0.019207 61.018506 -0.000000 -0.000000 -0.000000 5.569151 -8.935223 107.329101 0.548005 -0.005788 41.263714 -0.000000 -0.000005 0.000001 6.511233 -17.148206 98.228010 0.007406 -0.015748 43.845740 0.000000 -0.000003 -0.000000 0.000000 0.000002 -0.000004 0.000002 -0.000001 0.000000 0.000002 -0.000001 0.000000 0.000002 -0.000001 0.000000 0.000002 -0.000001 0.000000 0.000002 -0.000001 0.000000 -0.000001 -0.000001 0.000000 0.000002 -0.000001 0.000000 0.000002 -0.000001 0.000000 -0.000001 -0.000001 0.000000 0.000001 0.000001 -0.000001 0.000001 0.000001 -0.000001 0.000000 0.000001 -0.000000 
0.276301 78.834999 -0.905487 5.033443 -15.896864 0.169225 0.000001 0.000001 -0.000000 -34.285309 2.980185 9.457941 29.890274 5.089340 1.473060 0.209663 0.356705 -5.880273 0.000000 0.000000 -0.000000 0.000000 0.000000 -0.000000 -0.000000 -0.000000 0.000000 -16.654977 -10.560677 -12.353035 30.745823 -6.349132 1.418941 -16.388786 -2.077029 10.797179 0.000000 -0.000001 -0.000000 0.000000 -0.000001 -0.000000 -0.000000 0.000003 -0.000001 23.090015 4.408899 -0.288113 3.697011 1.270044 -0.848466 3.690615 1.342610 -0.860967 -12.863704 1.675243 2.090667 -13.987699 8.414726 -3.310304 0.000000 -0.000000 0.000000 0.000000 -0.000000 0.000000 0.000000 -0.000000 0.000000 7.686569 -20.788207 9.327150 -33.679625 -3.519089 -85.304671 0.000026 -43.357283 -4.333583 -17.231585 -10.328821 -12.796289 -7.471938 1.860688 -7.166927 30.987011 27.310511 -4.510893 -0.000002 -0.000004 -0.000002 -4.711710 11.345209 -75.237478 -0.816402 3.074010 -46.874635 0.000001 -0.000003 -0.000006 1.623062 16.576330 -84.598655 0.017975 0.022026 -72.792645 0.000000 0.000001 0.000000 -6.615142 23.030175 -76.196375 0.013392 0.979934 -50.778659 -0.000001 0.000000 -0.000000 -17.265723 21.699682 -43.572113 0.019306 0.026950 -77.688771 0.000000 0.000001 0.000002 0.000001 0.000004 0.000002 13.325447 26.974534 -22.684438 -43.270669 -4.158107 84.402703 0.000020 57.768053 5.603159 -18.560296 15.926154 8.602525 9.347163 2.810553 -11.364519 16.169090 -43.265997 15.843577 0.000001 0.000001 -0.000002 17.076783 -0.396540 31.924338 -0.204406 -0.284227 112.811564 -0.000001 -0.000000 0.000004 9.205481 -5.035910 102.738100 0.014976 -0.019203 61.018499 -0.000001 -0.000001 -0.000002 5.569152 -8.935220 107.329108 0.548001 -0.005787 41.263714 -0.000001 -0.000000 0.000002 6.511231 -17.148208 98.228017 0.007406 -0.015749 43.845740 0.000000 0.000001 0.000000 -0.000000 -0.000002 0.000002 0.000002 0.000000 0.000000 0.000002 0.000000 0.000000 0.000002 0.000000 0.000000 0.000002 0.000000 0.000000 0.000002 0.000000 0.000000 0.000002 -0.000001 0.000000 0.000002 0.000000 0.000000 0.000002 0.000000 0.000000 0.000002 -0.000001 0.000000 0.000000 -0.000000 -0.000000 0.000000 -0.000000 -0.000000 0.000001 0.000001 -0.000000 
0.315194 78.820740 -0.934335 5.038039 -16.222920 0.206684 0.000000 0.000002 -0.000000 -34.299024 3.020104 9.512517 29.995797 5.345650 1.480472 0.151901 0.364633 -5.929747 -0.000000 0.000000 -0.000000 -0.000000 0.000000 -0.000000 -0.000000 -0.000000 -0.000000 -16.849856 -10.483168 -12.428457 30.862466 -6.054207 1.429205 -16.372498 -2.058923 10.727086 -0.000000 -0.000004 0.000000 -0.000000 -0.000004 0.000000 0.000001 0.000000 0.000001 23.096583 4.462771 -0.286018 3.678789 1.304125 -0.850522 3.672124 1.375558 -0.864479 -13.000382 2.224549 1.887414 -13.930412 9.001491 -3.326599 0.000001 -0.000000 0.000000 0.000001 -0.000000 0.000000 0.000001 -0.000000 0.000000 7.549175 -20.634830 8.867790 -33.753992 -3.967023 -84.994041 0.000040 -43.669661 -3.983624 -17.295436 -9.823981 -12.930735 -7.471938 1.860684 -7.166933 30.987014 27.310513 -4.510893 -0.000002 0.000002 -0.000000 -4.710319 11.347938 -75.254389 -0.816401 3.074009 -46.874629 0.000003 -0.000002 -0.000002 1.629739 16.569764 -84.504883 0.017957 0.022012 -72.696640 0.000001 -0.000001 -0.000000 -6.793056 22.924058 -76.193424 0.013301 0.979870 -50.545220 -0.000003 -0.000001 -0.000004 -17.423623 21.254449 -44.081214 0.018852 0.026846 -76.662678 -0.000000 0.000001 0.000002 0.000001 -0.000000 0.000001 12.767501 26.735597 -21.908231 -43.497763 -2.834412 83.950982 0.000004 57.335736 5.420096 -18.961479 15.774155 8.544106 9.347162 2.810556 -11.364520 16.169093 -43.265997 15.843571 -0.000002 0.000002 -0.000001 17.076783 -0.396538 31.924338 -0.204408 -0.284228 112.811557 -0.000002 0.000002 -0.000001 9.205480 -5.035911 102.738100 0.014976 -0.019205 61.018499 -0.000001 -0.000000 -0.000000 5.569154 -8.935222 107.329101 0.548005 -0.005788 41.263714 -0.000002 -0.000001 0.000002 6.511232 -17.148208 98.228017 0.007407 -0.015745 43.845740 -0.000000 0.000003 0.000002 0.000000 -0.000003 0.000000 -0.000000 0.000000 0.000000 -0.000000 0.000000 0.000000 -0.000000 0.000000 0.000000 -0.000000 0.000000 0.000000 -0.000000 0.000000 0.000000 -0.000000 -0.000000 -0.000000 -0.000000 0.000000 0.000000 -0.000000 0.000000 0.000000 -0.000000 -0.000000 -0.000000 0.000001 0.000000 0.000000 0.000001 0.000000 0.000000 0.000000 0.000002 -0.000000 
0.357210 78.803200 -0.970255 5.043184 -16.591972 0.252973 0.000001 0.000000 -0.000000 -34.304594 2.997798 9.578455 30.118983 5.695495 1.443272 0.089381 0.370620 -5.982966 -0.000000 0.000000 -0.000000 -0.000000 0.000000 -0.000000 -0.000000 0.000000 0.000000 -17.108447 -10.522163 -12.524973 31.001406 -5.604979 1.380931 -16.359410 -2.036910 10.640809 0.000000 -0.000001 0.000000 0.000000 -0.000001 0.000000 0.000002 -0.000001 -0.000000 23.100887 4.515194 -0.287068 3.668305 1.344953 -0.853239 3.661482 1.415971 -0.869071 -13.136376 2.786679 1.677591 -13.885462 9.606063 -3.354276 0.000002 -0.000000 0.000000 0.000002 -0.000000 0.000000 0.000002 -0.000000 0.000000 7.406728 -20.484203 8.380335 -33.834442 -4.568831 -84.564121 0.000006 -43.951752 -3.708006 -17.514605 -9.378012 -12.968265 -7.471938 1.860688 -7.166925 30.987021 27.310513 -4.510890 -0.000003 -0.000001 0.000003 -4.708814 11.350808 -75.272175 -0.816398 3.074008 -46.874629 -0.000001 -0.000005 0.000001 1.633128 16.563870 -84.406330 0.017918 0.022013 -72.597172 -0.000000 -0.000001 0.000002 -6.976334 22.814659 -76.199564 0.013215 0.979804 -50.303380 -0.000002 0.000001 -0.000002 -17.571312 20.794185 -44.643387 0.018378 0.026728 -75.590045 0.000000 -0.000002 0.000003 0.000001 -0.000000 0.000004 12.246183 26.525444 -21.177143 -43.721366 -1.487018 83.438643 0.000026 56.901736 5.282923 -19.419539 15.653904 8.438901 9.347159 2.810552 -11.364524 16.169086 -43.265997 15.843578 -0.000001 0.000002 -0.000001 17.076783 -0.396541 31.924335 -0.204406 -0.284228 112.811557 -0.000002 0.000001 0.000000 9.205478 -5.035911 102.738094 0.014976 -0.019205 61.018506 0.000000 0.000002 0.000002 5.569153 -8.935224 107.329108 0.548005 -0.005788 41.263714 -0.000000 -0.000001 0.000000 6.511230 -17.148209 98.228010 0.007406 -0.015750 43.845737 0.000000 0.000001 0.000002 0.000001 0.000000 -0.000000 -0.000002 0.000001 -0.000000 -0.000002 0.000001 -0.000000 -0.000002 0.000001 -0.000000 -0.000002 0.000001 -0.000000 -0.000002 0.000001 0.000000 -0.000002 0.000001 0.000000 -0.000002 0.000001 -0.000000 -0.000002 0.000001 0.000000 -0.000002 0.000001 0.000000 0.000003 -0.000000 0.000000 0.000003 -0.000000 0.000000 0.000001 0.000000 -0.000000 
0.402061 78.782379 -1.014783 5.047007 -17.009560 0.310825 -0.000000 0.000001 0.000000 -34.312955 3.003100 9.655776 30.253302 6.061863 1.405731 0.024401 0.378923 -6.040951 -0.000000 -0.000000 0.000000 -0.000000 -0.000000 -0.000000 0.000000 0.000000 -0.000001 -17.410758 -10.571010 -12.641359 31.172632 -5.089400 1.329450 -16.349193 -2.009435 10.536239 0.000000 0.000000 0.000000 0.000000 0.000000 0.000000 0.000000 -0.000001 -0.000001 23.108506 4.570236 -0.300599 3.663203 1.389916 -0.859504 3.656698 1.460841 -0.877336 -13.267149 3.372221 1.453685 -13.847326 10.245874 -3.399599 0.000000 -0.000000 0.000000 0.000000 -0.000000 0.000000 0.000000 -0.000000 0.000000 7.261374 -20.335579 7.874390 -33.900763 -5.314794 -84.004169 0.000020 -44.245272 -3.519541 -17.917174 -8.969250 -12.895529 -7.471941 1.860686 -7.166927 30.987011 27.310511 -4.510896 0.000004 -0.000003 0.000001 -4.707248 11.353825 -75.290883 -0.816398 3.074009 -46.874629 0.000000 0.000000 -0.000005 1.636685 16.557801 -84.304683 0.017868 0.021984 -72.494508 -0.000000 -0.000001 -0.000002 -7.164524 22.702241 -76.213074 0.013125 0.979740 -50.053675 -0.000002 -0.000002 -0.000003 -17.707535 20.319799 -45.251526 0.017910 0.026596 -74.476178 0.000000 0.000001 -0.000000 0.000001 -0.000004 0.000002 11.748316 26.342276 -20.499930 -43.948473 -0.105501 82.878745 0.000023 56.461141 5.193604 -19.935538 15.545159 8.282590 9.347164 2.810555 -11.364520 16.169090 -43.265997 15.843575 0.000001 0.000001 -0.000002 17.076783 -0.396537 31.924338 -0.204409 -0.284229 112.811564 -0.000000 -0.000001 0.000002 9.205481 -5.035908 102.738100 0.014976 -0.019203 61.018506 -0.000000 -0.000002 0.000001 5.569154 -8.935224 107.329101 0.548003 -0.005791 41.263714 -0.000001 0.000000 0.000002 6.511233 -17.148206 98.228017 0.007406 -0.015749 43.845740 -0.000000 -0.000003 -0.000000 -0.000001 -0.000003 0.000001 0.000002 0.000000 -0.000000 0.000002 0.000000 -0.000000 0.000002 0.000000 -0.000000 0.000002 0.000000 -0.000000 0.000002 0.000000 0.000000 -0.000002 -0.000000 -0.000000 0.000002 0.000000 -0.000000 0.000002 0.000000 0.000000 -0.000002 -0.000000 -0.000000 -0.000001 -0.000000 -0.000000 -0.000001 -0.000000 -0.000000 -0.000000 0.000001 0.000000 
